<svg preserveAspectRatio="none" overflow="visible" style="display: block;" width="20.0769" height="20.0769" viewBox="0 0 20.0769 20.0769" fill="none" xmlns="http://www.w3.org/2000/svg">
<g id="pause">
<path id="Vector" d="M9.20192 14.6645V5.4124C9.20192 4.53404 8.82794 4.18269 7.88314 4.18269H5.50147C4.55667 4.18269 4.18269 4.53404 4.18269 5.4124V14.6645C4.18269 15.5429 4.55667 15.8942 5.50147 15.8942H7.88314C8.82794 15.8942 9.20192 15.5429 9.20192 14.6645Z" fill="white"/>
<path id="Vector_2" d="M15.8942 14.6645V5.4124C15.8942 4.53404 15.5202 4.18269 14.5755 4.18269H12.1938C11.2555 4.18269 10.875 4.53404 10.875 5.4124V14.6645C10.875 15.5429 11.249 15.8942 12.1938 15.8942H14.5755C15.5202 15.8942 15.8942 15.5429 15.8942 14.6645Z" fill="white"/>
<g id="Vector_3" opacity="0">
</g>
</g>
</svg>
